#!OML:ASF X:\für Bonn\!DataBase\2005_08_10_Bjorn_Final\c3d\bjorn.ASF
:FULLY-SPECIFIED
:DEGREES
592
root 0.0944747 1.58657 20.5537 -280.737 -1.86291 -535.906
lowerback 11.9732 2.71722 -0.567192
upperback 7.93979 2.54223 -4.63025
thorax 1.81196 0.867229 -4.79386
lowerneck -3.29258 -2.09303 -7.40902
upperneck 2.64225 -2.42335 -2.75754
head 1.43484 -1.36473 0.326056
rclavicle 0 -5.76476e-015
rhumerus -8.74018 11.3477 -50.7778
rradius 70.518
rwrist -7.62781
rhand -4.17375 10.0423
rfingers 7.12502
rthumb 21.5871 -18.7745
lclavicle 0 -5.76476e-015
lhumerus 1.75964 -46.3476 47.8718
lradius 53.1507
lwrist -13.4425
lhand -41.9369 -366.301
lfingers 7.12502
lthumb -14.8344 23.1476
rfemur 9.21749 -10.3035 9.3144
rtibia 9.57052
rfoot 20.7834 4.15135
rtoes -12.668
lfemur -39.2161 21.1685 6.21868
ltibia 113.234
lfoot 29.7132 -12.3002
ltoes 4.57616
593
root 0.102608 1.58884 20.5532 -280.708 -1.86185 -536.107
lowerback 11.855 2.65046 -0.561913
upperback 7.80357 2.48042 -4.60379
thorax 1.72467 0.8482 -4.7585
lowerneck -3.84361 -2.2111 -7.29328
upperneck 2.69493 -2.5274 -2.48041
head 1.55434 -1.41079 0.386297
rclavicle -9.54166e-015 0
rhumerus -9.17248 11.1681 -50.7314
rradius 71.9999
rwrist -7.99437
rhand -4.51593 9.99897
rfingers 7.12502
rthumb 21.2584 -18.8552
lclavicle -9.54166e-015 0
lhumerus 1.68561 -46.5763 47.1313
lradius 54.1648
lwrist -12.5353
lhand -41.9653 -366.083
lfingers 7.12502
lthumb -14.8618 23.3638
rfemur 9.33081 -10.1196 9.33442
rtibia 9.34858
rfoot 20.4533 3.78632
rtoes -12.9273
lfemur -39.0942 21.2768 6.33835
ltibia 113.168
lfoot 29.7472 -12.378
ltoes 4.40545
594
root 0.110881 1.59069 20.5522 -280.659 -1.84446 -536.313
lowerback 11.6953 2.5891 -0.535258
upperback 7.69888 2.42817 -4.56762
thorax 1.69481 0.83388 -4.72441
lowerneck -4.49532 -2.33034 -7.17498
upperneck 2.85606 -2.62392 -2.20378
head 1.72791 -1.45702 0.444479
rclavicle 6.52014e-014 -3.67752e-014
rhumerus -9.59628 10.9893 -50.66
rradius 73.4881
rwrist -8.26378
rhand -5.01999 9.90867
rfingers 7.12502
rthumb 20.7742 -18.9993
lclavicle 6.52014e-014 -3.67752e-014
lhumerus 1.66433 -46.7646 46.3755
lradius 55.1618
lwrist -11.6182
lhand -41.9734 -365.862
lfingers 7.12502
lthumb -14.8695 23.5842
rfemur 9.42719 -9.94044 9.38748
rtibia 9.11093
rfoot 20.1845 3.39378
rtoes -13.2737
lfemur -39.0003 21.3996 6.46861
ltibia 113.111
lfoot 29.7918 -12.4265
ltoes 4.2726
595
root 0.119546 1.59303 20.5506 -280.64 -1.85274 -536.528
lowerback 11.5845 2.5467 -0.514279
upperback 7.59978 2.3933 -4.55382
thorax 1.64708 0.825662 -4.7145
lowerneck -5.13602 -2.44451 -7.02351
upperneck 3.04106 -2.72085 -1.92978
head 1.90842 -1.50273 0.495892
rclavicle -1.59028e-015 -2.24627e-014
rhumerus -10.0817 10.8065 -50.6103
rradius 74.9374
rwrist -8.37334
rhand -5.44752 9.81367
rfingers 7.12502
rthumb 20.3634 -19.1387
lclavicle -1.59028e-015 -2.24627e-014
lhumerus 1.63106 -46.956 45.6268
lradius 56.1381
lwrist -10.7194
lhand -41.9991 -365.62
lfingers 7.12502
lthumb -14.8943 23.8249
rfemur 9.56669 -9.74074 9.40686
rtibia 8.84455
rfoot 19.9674 2.99785
rtoes -13.525
lfemur -38.8504 21.5071 6.58421
ltibia 113.041
lfoot 29.8242 -12.458
ltoes 4.29015
596
root 0.129101 1.59506 20.5488 -280.587 -1.84933 -536.728
lowerback 11.4412 2.48983 -0.485583
upperback 7.5055 2.34268 -4.53686
thorax 1.621 0.810666 -4.703
lowerneck -5.728 -2.56067 -6.86737
upperneck 3.16108 -2.78612 -1.67702
head 2.05968 -1.51207 0.541976
rclavicle 7.95139e-015 -4.90998e-014
rhumerus -10.5711 10.684 -50.5914
rradius 76.3545
rwrist -8.57478
rhand -5.81217 9.67683
rfingers 7.12502
rthumb 20.0129 -19.3126
lclavicle 7.95139e-015 -4.90998e-014
lhumerus 1.52508 -47.0323 44.9579
lradius 57.0928
lwrist -9.92763
lhand -41.9788 -365.475
lfingers 7.12502
lthumb -14.8747 23.9709
rfemur 9.67759 -9.56661 9.45501
rtibia 8.57988
rfoot 19.8159 2.64108
rtoes -13.6809
lfemur -38.7668 21.6113 6.69601
ltibia 112.986
lfoot 29.8658 -12.5481
ltoes 4.07028
597
root 0.139053 1.59685 20.5465 -280.563 -1.84671 -536.917
lowerback 11.3417 2.43821 -0.484529
upperback 7.41456 2.29511 -4.48686
thorax 1.57216 0.795192 -4.64281
lowerneck -6.22277 -2.64016 -6.77646
upperneck 3.21918 -2.8724 -1.43753
head 2.17452 -1.55403 0.594528
rclavicle 9.54166e-015 -4.96962e-015
rhumerus -11.1115 10.657 -50.5075
rradius 77.7497
rwrist -8.98482
rhand -6.37237 9.61197
rfingers 7.12502
rthumb 19.4744 -19.4328
lclavicle 9.54166e-015 -4.96962e-015
lhumerus 1.33926 -47.1105 44.4047
lradius 58.0348
lwrist -9.14075
lhand -41.9659 -365.376
lfingers 7.12502
lthumb -14.8623 24.0706
rfemur 9.81246 -9.39789 9.49648
rtibia 8.32279
rfoot 19.7275 2.24664
rtoes -13.5727
lfemur -38.6566 21.6904 6.81919
ltibia 112.925
lfoot 29.9194 -12.5725
ltoes 3.97322
598
root 0.15006 1.59888 20.5457 -280.5 -1.84022 -537.1
lowerback 11.2224 2.38554 -0.48353
upperback 7.29999 2.24899 -4.43798
thorax 1.50944 0.78185 -4.58347
lowerneck -6.70061 -2.71772 -6.6468
upperneck 3.35622 -2.95841 -1.23736
head 2.31177 -1.59752 0.627446
rclavicle 4.77083e-015 -1.13307e-014
rhumerus -11.7239 10.6279 -50.4407
rradius 79.1361
rwrist -9.28549
rhand -6.93842 9.6024
rfingers 7.12502
rthumb 18.93 -19.4965
lclavicle 4.77083e-015 -1.13307e-014
lhumerus 1.10375 -47.1928 43.8767
lradius 58.9714
lwrist -8.45355
lhand -42.002 -365.333
lfingers 7.12502
lthumb -14.897 24.1111
rfemur 9.89565 -9.24541 9.56109
rtibia 8.082
rfoot 19.6547 1.91612
rtoes -13.5549
lfemur -38.5944 21.7833 6.92633
ltibia 112.865
lfoot 29.9927 -12.6104
ltoes 3.91804
599
root 0.161133 1.60112 20.5441 -280.438 -1.8712 -537.291
lowerback 11.1001 2.36033 -0.493126
upperback 7.19821 2.23382 -4.41192
thorax 1.46523 0.781848 -4.54523
lowerneck -7.14472 -2.79967 -6.50739
upperneck 3.4656 -3.05813 -1.01473
head 2.43515 -1.64499 0.66554
rclavicle -2.22639e-014 2.14687e-014
rhumerus -12.4117 10.5358 -50.3842
rradius 80.5418
rwrist -9.52199
rhand -7.51323 9.62175
rfingers 7.12502
rthumb 18.3772 -19.5302
lclavicle -2.22639e-014 2.14687e-014
lhumerus 0.959713 -47.3065 43.3086
lradius 59.8435
lwrist -7.82331
lhand -42.0618 -365.402
lfingers 7.12502
lthumb -14.9547 24.0385
rfemur 9.97134 -9.07669 9.58424
rtibia 7.85645
rfoot 19.6163 1.60879
rtoes -13.3757
lfemur -38.5241 21.8645 6.99074
ltibia 112.803
lfoot 30.1139 -12.5965
ltoes 4.09794
